#N canvas 0 0 450 300 10;
#X obj 210 83;
#X floatatom 210 108 5 0 0 0 - - -, f 5;
#X text 210 132 comment;
#X dropdown 210 157 6 1 0 0 - - -, f 6;
#X obj 210 181 bng 15 250 50 0 empty empty empty 17 7 0 10 -262144
-1 -1;
#X obj 210 204 tgl 15 0 empty empty empty 17 7 0 10 -262144 -1 -1 0
1;
#X connect 0 0 1 0;
#X connect 3 0 4 0;
#X connect 4 0 5 0;
